<svg xmlns="http://www.w3.org/2000/svg" viewBox="0 0 399.9 106.65"><defs><style>.cls-1{fill:#fff;}</style></defs><g id="Livello_2" data-name="Livello 2"><g id="Livello_1-2" data-name="Livello 1"><path class="cls-1" d="M0,70A43.06,43.06,0,0,1,2.53,54.83,33.49,33.49,0,0,1,9.61,43.22a31.35,31.35,0,0,1,10.62-7.38,33.58,33.58,0,0,1,13.29-2.58q13.86,0,21.52,7.31t9.11,19.06H51.43A20.21,20.21,0,0,0,46,48.45q-4.27-4.31-12.5-4.3a17.55,17.55,0,0,0-8,1.86,19.77,19.77,0,0,0-6.43,5.24,24.35,24.35,0,0,0-4.26,8.17A34.84,34.84,0,0,0,13.29,70a34.67,34.67,0,0,0,1.52,10.61,24.48,24.48,0,0,0,4.26,8.1,19.61,19.61,0,0,0,6.43,5.23,17.55,17.55,0,0,0,8,1.86q8.23,0,12.5-4.3a20.18,20.18,0,0,0,5.41-11.18H64.15Q62.69,92,55,99.34t-21.52,7.31a36.27,36.27,0,0,1-14-2.58A29,29,0,0,1,9,96.69,32.92,32.92,0,0,1,2.31,85.15,46.71,46.71,0,0,1,0,70Z"/><path class="cls-1" d="M74,0H86.68V104.93H74Z"/><path class="cls-1" d="M97.66,70a42.16,42.16,0,0,1,2.6-15.12,34.72,34.72,0,0,1,7.15-11.61,30.82,30.82,0,0,1,10.91-7.38,37,37,0,0,1,14-2.58,38.31,38.31,0,0,1,14.37,2.58,30.57,30.57,0,0,1,11,7.38,31.91,31.91,0,0,1,6.94,11.61A45.51,45.51,0,0,1,167,70a42,42,0,0,1-2.6,15.2,34.74,34.74,0,0,1-7.15,11.54,30.74,30.74,0,0,1-11,7.38,37.13,37.13,0,0,1-13.94,2.58,38.14,38.14,0,0,1-14.45-2.58A30.73,30.73,0,0,1,107,96.69a32.15,32.15,0,0,1-6.93-11.54A45.36,45.36,0,0,1,97.66,70ZM111,70a34.67,34.67,0,0,0,1.52,10.61,23.72,23.72,0,0,0,4.34,8.1,19.43,19.43,0,0,0,6.79,5.23,20.32,20.32,0,0,0,8.74,1.86,19.48,19.48,0,0,0,15.38-7.09,24.73,24.73,0,0,0,4.41-8.1A33.17,33.17,0,0,0,153.72,70q0-12.18-5.93-19a19.51,19.51,0,0,0-15.45-6.81A20.32,20.32,0,0,0,123.6,46a19.57,19.57,0,0,0-6.79,5.24,23.61,23.61,0,0,0-4.34,8.17A34.84,34.84,0,0,0,111,70Z"/><path class="cls-1" d="M184.92,84.29A11.41,11.41,0,0,0,186.3,90,11,11,0,0,0,190,94a16.76,16.76,0,0,0,5.27,2.23,26.45,26.45,0,0,0,6.14.71q8.67,0,12.57-2.72t3.9-8.75c0-2.77-.81-4.85-2.45-6.23s-4.29-2.41-7.95-3.08l-13.29-2.3a48.47,48.47,0,0,1-6.86-1.72,22,22,0,0,1-6.43-3.29,17.46,17.46,0,0,1-4.77-5.45A16.66,16.66,0,0,1,174.23,55a19.49,19.49,0,0,1,2.1-9.17,20.19,20.19,0,0,1,5.78-6.81,27.28,27.28,0,0,1,8.67-4.3,37.64,37.64,0,0,1,10.9-1.5,41.44,41.44,0,0,1,10.55,1.29,25.15,25.15,0,0,1,8.6,4,19.47,19.47,0,0,1,8,16.48H216.71a10.66,10.66,0,0,0-4.05-8.81q-4-3.23-11-3.23a19.6,19.6,0,0,0-10.76,2.73,9,9,0,0,0-4.26,8.17,7.46,7.46,0,0,0,2.53,6q2.52,2.14,9,3.3l13.29,2.29a50.67,50.67,0,0,1,7.22,1.93,19,19,0,0,1,6.07,3.44,16.62,16.62,0,0,1,4.19,5.6,19.57,19.57,0,0,1,1.59,8.38q0,11-8,16.41t-20.95,5.38q-13.58,0-21.23-5.81t-7.66-16.55Z"/><path class="cls-1" d="M236.93,70A42.33,42.33,0,0,1,239.46,55a34.76,34.76,0,0,1,7.08-11.61,32.09,32.09,0,0,1,10.62-7.52,32.79,32.79,0,0,1,13.29-2.65,34.55,34.55,0,0,1,12.64,2.22A26.92,26.92,0,0,1,292.92,42a30.45,30.45,0,0,1,6.43,10.46,39.88,39.88,0,0,1,2.31,14.05v5.16H250.23q.42,11.19,6,17.63T271,95.75q7.8,0,12-3.65a16.16,16.16,0,0,0,5.35-8.39h12.71a24.51,24.51,0,0,1-3.18,8.89,26.06,26.06,0,0,1-6.35,7.24,32.11,32.11,0,0,1-9.11,5A33.63,33.63,0,0,1,271,106.65a38.56,38.56,0,0,1-14.59-2.58,28.7,28.7,0,0,1-10.69-7.38,32.18,32.18,0,0,1-6.58-11.54A48.14,48.14,0,0,1,236.93,70Zm33.52-25.8a18,18,0,0,0-12.57,4.73q-5.19,4.73-6.93,13.33h37.71q-.87-9.47-5.57-13.76T270.45,44.15Z"/><path class="cls-1" d="M338.06,35h12.72v70H338.06Z"/><path class="cls-1" d="M368.69,45.3H355.4V35h13.29V13.76H381.4V35h18.5V45.3H381.4V83.71q0,5.6,2.32,8c1.53,1.58,4,2.37,7.51,2.37h8.67v10.89H389.49q-10.39,0-15.6-4.87t-5.2-15.2Z"/><rect class="cls-1" x="337.98" y="1.76" width="12.7" height="12.8"/></g></g></svg>