<svg xmlns="http://www.w3.org/2000/svg" viewBox="0 0 64.68 73.39"><defs><style>.cls-1{fill:#fff;}.cls-2{fill:#17185e;}</style></defs><g id="Livello_2" data-name="Livello 2"><g id="Livello_1-2" data-name="Livello 1"><rect class="cls-1" x="51.98" y="30.51" width="12.7" height="12.8"/><path class="cls-2" d="M0,36.7A43.11,43.11,0,0,1,2.53,21.57,33.68,33.68,0,0,1,9.61,10,31.35,31.35,0,0,1,20.23,2.58,33.58,33.58,0,0,1,33.52,0Q47.38,0,55,7.31t9.11,19.07H51.43A20.24,20.24,0,0,0,46,15.19q-4.27-4.29-12.5-4.3a17.56,17.56,0,0,0-8,1.87A19.73,19.73,0,0,0,19.07,18a24.45,24.45,0,0,0-4.26,8.17A34.9,34.9,0,0,0,13.29,36.7a34.61,34.61,0,0,0,1.52,10.6,24.38,24.38,0,0,0,4.26,8.1,19.77,19.77,0,0,0,6.43,5.24,17.55,17.55,0,0,0,8,1.86q8.23,0,12.5-4.3A20.24,20.24,0,0,0,51.43,47H64.15Q62.69,58.77,55,66.08T33.52,73.39a36.27,36.27,0,0,1-14-2.58A29,29,0,0,1,9,63.43,32.92,32.92,0,0,1,2.31,51.89,46.64,46.64,0,0,1,0,36.7Z"/></g></g></svg>